<?xml version="1.0" standalone="no"?>
<!DOCTYPE svg PUBLIC "-//W3C//DTD SVG 20010904//EN"
 "http://www.w3.org/TR/2001/REC-SVG-20010904/DTD/svg10.dtd">
<svg version="1.0" xmlns="http://www.w3.org/2000/svg"
 width="260.000000pt" height="260.000000pt" viewBox="0 0 260.000000 260.000000"
 preserveAspectRatio="xMidYMid meet">
<metadata>
Created by potrace 1.14, written by Peter Selinger 2001-2017
</metadata>
<g transform="translate(0.000000,260.000000) scale(0.100000,-0.100000)"
fill="#000000" stroke="none">
<path d="M1451 1313 c1 -626 4 -1142 9 -1148 5 -7 201 -9 567 -8 307 0 561 1
566 2 4 1 7 516 7 1146 l0 1145 -574 0 -575 0 0 -1137z"/>
<path d="M580 1453 c-52 -7 -160 -36 -166 -44 -3 -5 -12 -9 -21 -9 -28 0 -132
-71 -197 -133 -75 -73 -127 -156 -163 -258 -20 -60 -26 -94 -27 -179 0 -58 2
-121 5 -142 33 -189 167 -371 339 -458 395 -201 868 35 940 469 34 202 -32
411 -173 553 -82 83 -109 103 -196 143 -99 46 -241 70 -341 58z"/>
</g>
</svg>
