<svg width="37" height="36" viewBox="0 0 37 36" fill="none" xmlns="http://www.w3.org/2000/svg">
<path fill-rule="evenodd" clip-rule="evenodd" d="M7.04504 8.5208C7.04506 6.12421 8.98788 4.1814 11.3845 4.1814H25.6035C28.0001 4.1814 29.9429 6.12422 29.9429 8.52083V17.21C29.9429 17.8616 29.4148 18.3897 28.7632 18.3897C28.1117 18.3897 27.5835 17.8616 27.5835 17.21V8.52083C27.5835 7.42732 26.697 6.54085 25.6035 6.54085H11.3845C10.291 6.54085 9.4045 7.42731 9.40449 8.52082L9.40437 27.479C9.40437 28.5725 10.2908 29.459 11.3843 29.459H17.7038C18.3553 29.459 18.8835 29.9872 18.8835 30.6387C18.8835 31.2902 18.3553 31.8184 17.7038 31.8184H11.3843C8.98773 31.8184 7.04491 29.8756 7.04492 27.479L7.04504 8.5208ZM12.5749 11.6805C12.5749 11.029 13.1031 10.5008 13.7546 10.5008H23.2337C23.8853 10.5008 24.4135 11.029 24.4135 11.6805C24.4135 12.3321 23.8853 12.8603 23.2337 12.8603H13.7546C13.1031 12.8603 12.5749 12.3321 12.5749 11.6805ZM12.5749 16.4201C12.5749 15.7685 13.1031 15.2404 13.7546 15.2404H23.2337C23.8853 15.2404 24.4135 15.7685 24.4135 16.4201C24.4135 17.0716 23.8853 17.5998 23.2337 17.5998H13.7546C13.1031 17.5998 12.5749 17.0716 12.5749 16.4201ZM12.5749 21.1596C12.5749 20.5081 13.1031 19.9799 13.7546 19.9799H18.4942C19.1457 19.9799 19.6739 20.5081 19.6739 21.1596C19.6739 21.8112 19.1457 22.3394 18.4942 22.3394H13.7546C13.1031 22.3394 12.5749 21.8112 12.5749 21.1596ZM32.4938 21.905C32.9545 22.3657 32.9545 23.1127 32.4938 23.5734L26.1744 29.8931C25.9532 30.1143 25.6531 30.2386 25.3402 30.2386C25.0273 30.2386 24.7273 30.1143 24.506 29.8931L21.6096 26.9967C21.1489 26.536 21.1489 25.789 21.6096 25.3283C22.0703 24.8676 22.8173 24.8676 23.278 25.3283L25.3402 27.3905L30.8254 21.9051C31.2861 21.4444 32.0331 21.4443 32.4938 21.905Z" fill="#667A99"/>
<path fill-rule="evenodd" clip-rule="evenodd" d="M7.04504 8.5208C7.04506 6.12421 8.98788 4.1814 11.3845 4.1814H25.6035C28.0001 4.1814 29.9429 6.12422 29.9429 8.52083V17.21C29.9429 17.8616 29.4148 18.3897 28.7632 18.3897C28.1117 18.3897 27.5835 17.8616 27.5835 17.21V8.52083C27.5835 7.42732 26.697 6.54085 25.6035 6.54085H11.3845C10.291 6.54085 9.4045 7.42731 9.40449 8.52082L9.40437 27.479C9.40437 28.5725 10.2908 29.459 11.3843 29.459H17.7038C18.3553 29.459 18.8835 29.9872 18.8835 30.6387C18.8835 31.2902 18.3553 31.8184 17.7038 31.8184H11.3843C8.98773 31.8184 7.04491 29.8756 7.04492 27.479L7.04504 8.5208ZM12.5749 11.6805C12.5749 11.029 13.1031 10.5008 13.7546 10.5008H23.2337C23.8853 10.5008 24.4135 11.029 24.4135 11.6805C24.4135 12.3321 23.8853 12.8603 23.2337 12.8603H13.7546C13.1031 12.8603 12.5749 12.3321 12.5749 11.6805ZM12.5749 16.4201C12.5749 15.7685 13.1031 15.2404 13.7546 15.2404H23.2337C23.8853 15.2404 24.4135 15.7685 24.4135 16.4201C24.4135 17.0716 23.8853 17.5998 23.2337 17.5998H13.7546C13.1031 17.5998 12.5749 17.0716 12.5749 16.4201ZM12.5749 21.1596C12.5749 20.5081 13.1031 19.9799 13.7546 19.9799H18.4942C19.1457 19.9799 19.6739 20.5081 19.6739 21.1596C19.6739 21.8112 19.1457 22.3394 18.4942 22.3394H13.7546C13.1031 22.3394 12.5749 21.8112 12.5749 21.1596ZM32.4938 21.905C32.9545 22.3657 32.9545 23.1127 32.4938 23.5734L26.1744 29.8931C25.9532 30.1143 25.6531 30.2386 25.3402 30.2386C25.0273 30.2386 24.7273 30.1143 24.506 29.8931L21.6096 26.9967C21.1489 26.536 21.1489 25.789 21.6096 25.3283C22.0703 24.8676 22.8173 24.8676 23.278 25.3283L25.3402 27.3905L30.8254 21.9051C31.2861 21.4444 32.0331 21.4443 32.4938 21.905Z" fill="url(#paint0_linear_3865_12059)"/>
<defs>
<linearGradient id="paint0_linear_3865_12059" x1="6.91685" y1="6.903" x2="31.8329" y2="29.7607" gradientUnits="userSpaceOnUse">
<stop stop-color="#1E80FF"/>
<stop offset="1" stop-color="#BD22FF"/>
</linearGradient>
</defs>
</svg>
