<svg width="37" height="36" viewBox="0 0 37 36" fill="none" xmlns="http://www.w3.org/2000/svg">
<path d="M10.0992 18.6599H27.1992C27.597 18.6599 27.9786 18.8179 28.2599 19.0992C28.5412 19.3806 28.6992 19.7621 28.6992 20.1599C28.6992 20.5577 28.5412 20.9393 28.2599 21.2206C27.9786 21.5019 27.597 21.6599 27.1992 21.6599H10.0992C9.70139 21.6599 9.31986 21.5019 9.03856 21.2206C8.75725 20.9393 8.59922 20.5577 8.59922 20.1599C8.59922 19.7621 8.75725 19.3806 9.03856 19.0992C9.31986 18.8179 9.70139 18.6599 10.0992 18.6599Z" fill="#667A99"/>
<path d="M10.0992 18.6599H27.1992C27.597 18.6599 27.9786 18.8179 28.2599 19.0992C28.5412 19.3806 28.6992 19.7621 28.6992 20.1599C28.6992 20.5577 28.5412 20.9393 28.2599 21.2206C27.9786 21.5019 27.597 21.6599 27.1992 21.6599H10.0992C9.70139 21.6599 9.31986 21.5019 9.03856 21.2206C8.75725 20.9393 8.59922 20.5577 8.59922 20.1599C8.59922 19.7621 8.75725 19.3806 9.03856 19.0992C9.31986 18.8179 9.70139 18.6599 10.0992 18.6599Z" fill="url(#paint0_linear_3865_12038)"/>
<path d="M10.0992 25.2599H17.5992C17.997 25.2599 18.3786 25.4179 18.6599 25.6992C18.9412 25.9805 19.0992 26.3621 19.0992 26.7599C19.0992 27.1577 18.9412 27.5392 18.6599 27.8205C18.3786 28.1019 17.997 28.2599 17.5992 28.2599H10.0992C9.70139 28.2599 9.31986 28.1019 9.03856 27.8205C8.75725 27.5392 8.59922 27.1577 8.59922 26.7599C8.59922 26.3621 8.75725 25.9805 9.03856 25.6992C9.31986 25.4179 9.70139 25.2599 10.0992 25.2599Z" fill="#667A99"/>
<path d="M10.0992 25.2599H17.5992C17.997 25.2599 18.3786 25.4179 18.6599 25.6992C18.9412 25.9805 19.0992 26.3621 19.0992 26.7599C19.0992 27.1577 18.9412 27.5392 18.6599 27.8205C18.3786 28.1019 17.997 28.2599 17.5992 28.2599H10.0992C9.70139 28.2599 9.31986 28.1019 9.03856 27.8205C8.75725 27.5392 8.59922 27.1577 8.59922 26.7599C8.59922 26.3621 8.75725 25.9805 9.03856 25.6992C9.31986 25.4179 9.70139 25.2599 10.0992 25.2599Z" fill="url(#paint1_linear_3865_12038)"/>
<path d="M10.0992 12.0599H27.1992C27.597 12.0599 27.9786 12.218 28.2599 12.4993C28.5412 12.7806 28.6992 13.1621 28.6992 13.5599C28.6992 13.9577 28.5412 14.3393 28.2599 14.6206C27.9786 14.9019 27.597 15.0599 27.1992 15.0599H10.0992C9.70139 15.0599 9.31986 14.9019 9.03856 14.6206C8.75725 14.3393 8.59922 13.9577 8.59922 13.5599C8.59922 13.1621 8.75725 12.7806 9.03856 12.4993C9.31986 12.218 9.70139 12.0599 10.0992 12.0599Z" fill="#667A99"/>
<path d="M10.0992 12.0599H27.1992C27.597 12.0599 27.9786 12.218 28.2599 12.4993C28.5412 12.7806 28.6992 13.1621 28.6992 13.5599C28.6992 13.9577 28.5412 14.3393 28.2599 14.6206C27.9786 14.9019 27.597 15.0599 27.1992 15.0599H10.0992C9.70139 15.0599 9.31986 14.9019 9.03856 14.6206C8.75725 14.3393 8.59922 13.9577 8.59922 13.5599C8.59922 13.1621 8.75725 12.7806 9.03856 12.4993C9.31986 12.218 9.70139 12.0599 10.0992 12.0599Z" fill="url(#paint2_linear_3865_12038)"/>
<path fill-rule="evenodd" clip-rule="evenodd" d="M31.1462 23.3999C31.8161 23.3999 32.3592 23.943 32.3592 24.6129L32.3592 26.5538C32.3592 29.3676 30.0782 31.6486 27.2644 31.6486H25.3408L26.1813 32.4891C26.655 32.9628 26.655 33.7309 26.1813 34.2046C25.7076 34.6783 24.9395 34.6783 24.4658 34.2046L21.5545 31.2933C21.327 31.0658 21.1992 30.7573 21.1992 30.4355C21.1992 30.1138 21.327 29.8053 21.5545 29.5778L24.4658 26.6665C24.9395 26.1928 25.7076 26.1928 26.1813 26.6665C26.655 27.1402 26.655 27.9083 26.1813 28.382L25.3408 29.2225H27.2644C28.7383 29.2225 29.9331 28.0277 29.9331 26.5538V24.6129C29.9331 23.943 30.4762 23.3999 31.1462 23.3999Z" fill="#667A99"/>
<path fill-rule="evenodd" clip-rule="evenodd" d="M31.1462 23.3999C31.8161 23.3999 32.3592 23.943 32.3592 24.6129L32.3592 26.5538C32.3592 29.3676 30.0782 31.6486 27.2644 31.6486H25.3408L26.1813 32.4891C26.655 32.9628 26.655 33.7309 26.1813 34.2046C25.7076 34.6783 24.9395 34.6783 24.4658 34.2046L21.5545 31.2933C21.327 31.0658 21.1992 30.7573 21.1992 30.4355C21.1992 30.1138 21.327 29.8053 21.5545 29.5778L24.4658 26.6665C24.9395 26.1928 25.7076 26.1928 26.1813 26.6665C26.655 27.1402 26.655 27.9083 26.1813 28.382L25.3408 29.2225H27.2644C28.7383 29.2225 29.9331 28.0277 29.9331 26.5538V24.6129C29.9331 23.943 30.4762 23.3999 31.1462 23.3999Z" fill="url(#paint3_linear_3865_12038)"/>
<path fill-rule="evenodd" clip-rule="evenodd" d="M4.41226 12.0599C3.74232 12.0599 3.19922 11.5168 3.19922 10.8469L3.19922 8.90599C3.19922 6.09222 5.48023 3.81121 8.294 3.81121L10.2176 3.81121L9.37712 2.9707C8.9034 2.49697 8.9034 1.72892 9.37712 1.25519C9.85085 0.781471 10.6189 0.781473 11.0926 1.2552L14.0039 4.1665C14.2314 4.39399 14.3592 4.70253 14.3592 5.02425C14.3592 5.34597 14.2314 5.65451 14.0039 5.882L11.0926 8.79331C10.6189 9.26703 9.85084 9.26703 9.37712 8.79331C8.9034 8.31958 8.9034 7.55152 9.37712 7.0778L10.2176 6.23729H8.294C6.82012 6.23729 5.62531 7.43211 5.62531 8.90599L5.62531 10.8469C5.62531 11.5168 5.08221 12.0599 4.41226 12.0599Z" fill="#667A99"/>
<path fill-rule="evenodd" clip-rule="evenodd" d="M4.41226 12.0599C3.74232 12.0599 3.19922 11.5168 3.19922 10.8469L3.19922 8.90599C3.19922 6.09222 5.48023 3.81121 8.294 3.81121L10.2176 3.81121L9.37712 2.9707C8.9034 2.49697 8.9034 1.72892 9.37712 1.25519C9.85085 0.781471 10.6189 0.781473 11.0926 1.2552L14.0039 4.1665C14.2314 4.39399 14.3592 4.70253 14.3592 5.02425C14.3592 5.34597 14.2314 5.65451 14.0039 5.882L11.0926 8.79331C10.6189 9.26703 9.85084 9.26703 9.37712 8.79331C8.9034 8.31958 8.9034 7.55152 9.37712 7.0778L10.2176 6.23729H8.294C6.82012 6.23729 5.62531 7.43211 5.62531 8.90599L5.62531 10.8469C5.62531 11.5168 5.08221 12.0599 4.41226 12.0599Z" fill="url(#paint4_linear_3865_12038)"/>
<defs>
<linearGradient id="paint0_linear_3865_12038" x1="3.05444" y1="4.21463" x2="33.124" y2="29.8194" gradientUnits="userSpaceOnUse">
<stop stop-color="#1E80FF"/>
<stop offset="1" stop-color="#BD22FF"/>
</linearGradient>
<linearGradient id="paint1_linear_3865_12038" x1="3.05444" y1="4.21463" x2="33.124" y2="29.8194" gradientUnits="userSpaceOnUse">
<stop stop-color="#1E80FF"/>
<stop offset="1" stop-color="#BD22FF"/>
</linearGradient>
<linearGradient id="paint2_linear_3865_12038" x1="3.05444" y1="4.21463" x2="33.124" y2="29.8194" gradientUnits="userSpaceOnUse">
<stop stop-color="#1E80FF"/>
<stop offset="1" stop-color="#BD22FF"/>
</linearGradient>
<linearGradient id="paint3_linear_3865_12038" x1="3.05444" y1="4.21463" x2="33.124" y2="29.8194" gradientUnits="userSpaceOnUse">
<stop stop-color="#1E80FF"/>
<stop offset="1" stop-color="#BD22FF"/>
</linearGradient>
<linearGradient id="paint4_linear_3865_12038" x1="3.05444" y1="4.21463" x2="33.124" y2="29.8194" gradientUnits="userSpaceOnUse">
<stop stop-color="#1E80FF"/>
<stop offset="1" stop-color="#BD22FF"/>
</linearGradient>
</defs>
</svg>
