<svg width="37" height="36" viewBox="0 0 37 36" fill="none" xmlns="http://www.w3.org/2000/svg">
<path d="M5.59961 10.5002H32.5996C32.9974 10.5002 33.379 10.3422 33.6603 10.0609C33.9416 9.7796 34.0996 9.39807 34.0996 9.00024C34.0996 8.60242 33.9416 8.22089 33.6603 7.93958C33.379 7.65828 32.9974 7.50024 32.5996 7.50024H5.59961C5.20178 7.50024 4.82025 7.65828 4.53895 7.93958C4.25764 8.22089 4.09961 8.60242 4.09961 9.00024C4.09961 9.39807 4.25764 9.7796 4.53895 10.0609C4.82025 10.3422 5.20178 10.5002 5.59961 10.5002Z" fill="#667A99"/>
<path d="M5.59961 10.5002H32.5996C32.9974 10.5002 33.379 10.3422 33.6603 10.0609C33.9416 9.7796 34.0996 9.39807 34.0996 9.00024C34.0996 8.60242 33.9416 8.22089 33.6603 7.93958C33.379 7.65828 32.9974 7.50024 32.5996 7.50024H5.59961C5.20178 7.50024 4.82025 7.65828 4.53895 7.93958C4.25764 8.22089 4.09961 8.60242 4.09961 9.00024C4.09961 9.39807 4.25764 9.7796 4.53895 10.0609C4.82025 10.3422 5.20178 10.5002 5.59961 10.5002Z" fill="url(#paint0_linear_3865_12096)"/>
<path d="M24.1996 16.5003H5.59961C5.20178 16.5003 4.82025 16.3422 4.53895 16.0609C4.25764 15.7796 4.09961 15.3981 4.09961 15.0003C4.09961 14.6024 4.25764 14.2209 4.53895 13.9396C4.82025 13.6583 5.20178 13.5003 5.59961 13.5003H24.1996C24.5974 13.5003 24.979 13.6583 25.2603 13.9396C25.5416 14.2209 25.6996 14.6024 25.6996 15.0003C25.6996 15.3981 25.5416 15.7796 25.2603 16.0609C24.979 16.3422 24.5974 16.5003 24.1996 16.5003Z" fill="#667A99"/>
<path d="M24.1996 16.5003H5.59961C5.20178 16.5003 4.82025 16.3422 4.53895 16.0609C4.25764 15.7796 4.09961 15.3981 4.09961 15.0003C4.09961 14.6024 4.25764 14.2209 4.53895 13.9396C4.82025 13.6583 5.20178 13.5003 5.59961 13.5003H24.1996C24.5974 13.5003 24.979 13.6583 25.2603 13.9396C25.5416 14.2209 25.6996 14.6024 25.6996 15.0003C25.6996 15.3981 25.5416 15.7796 25.2603 16.0609C24.979 16.3422 24.5974 16.5003 24.1996 16.5003Z" fill="url(#paint1_linear_3865_12096)"/>
<path d="M29.5996 22.5003H5.59961C5.20178 22.5003 4.82025 22.3422 4.53895 22.0609C4.25764 21.7796 4.09961 21.3981 4.09961 21.0003C4.09961 20.6025 4.25764 20.2209 4.53895 19.9396C4.82025 19.6583 5.20178 19.5003 5.59961 19.5003H29.5996C29.9974 19.5003 30.379 19.6583 30.6603 19.9396C30.9416 20.2209 31.0996 20.6025 31.0996 21.0003C31.0996 21.3981 30.9416 21.7796 30.6603 22.0609C30.379 22.3422 29.9974 22.5003 29.5996 22.5003Z" fill="#667A99"/>
<path d="M29.5996 22.5003H5.59961C5.20178 22.5003 4.82025 22.3422 4.53895 22.0609C4.25764 21.7796 4.09961 21.3981 4.09961 21.0003C4.09961 20.6025 4.25764 20.2209 4.53895 19.9396C4.82025 19.6583 5.20178 19.5003 5.59961 19.5003H29.5996C29.9974 19.5003 30.379 19.6583 30.6603 19.9396C30.9416 20.2209 31.0996 20.6025 31.0996 21.0003C31.0996 21.3981 30.9416 21.7796 30.6603 22.0609C30.379 22.3422 29.9974 22.5003 29.5996 22.5003Z" fill="url(#paint2_linear_3865_12096)"/>
<path d="M22.5318 30.4007C22.4412 30.5758 22.3169 30.7312 22.1661 30.8582C22.0145 30.9845 21.8395 31.0797 21.6511 31.1382C21.4627 31.1968 21.2646 31.2176 21.0681 31.1995C20.8717 31.1814 20.6807 31.1247 20.5062 31.0327C20.3317 30.9406 20.177 30.8151 20.0511 30.6632L18.7011 29.0432L17.3511 30.6632C17.2252 30.8151 17.0705 30.9406 16.896 31.0327C16.7215 31.1247 16.5305 31.1814 16.334 31.1995C16.1376 31.2176 15.9395 31.1968 15.7511 31.1382C15.5627 31.0797 15.3877 30.9845 15.2361 30.8582C15.0668 30.7172 14.9306 30.5406 14.8373 30.3409C14.7439 30.1413 14.6957 29.9236 14.6961 29.7032C14.6996 29.3508 14.827 29.011 15.0561 28.7432L17.5461 25.7432C17.6868 25.5733 17.8633 25.4366 18.063 25.3428C18.2626 25.2489 18.4805 25.2003 18.7011 25.2003C18.9217 25.2003 19.1396 25.2489 19.3392 25.3428C19.5388 25.4366 19.7153 25.5733 19.8561 25.7432L22.3461 28.7432C22.4733 28.8938 22.5695 29.0681 22.6293 29.2559C22.689 29.4438 22.7112 29.6416 22.6945 29.838C22.6778 30.0344 22.6225 30.2256 22.5318 30.4007Z" fill="#667A99"/>
<path d="M22.5318 30.4007C22.4412 30.5758 22.3169 30.7312 22.1661 30.8582C22.0145 30.9845 21.8395 31.0797 21.6511 31.1382C21.4627 31.1968 21.2646 31.2176 21.0681 31.1995C20.8717 31.1814 20.6807 31.1247 20.5062 31.0327C20.3317 30.9406 20.177 30.8151 20.0511 30.6632L18.7011 29.0432L17.3511 30.6632C17.2252 30.8151 17.0705 30.9406 16.896 31.0327C16.7215 31.1247 16.5305 31.1814 16.334 31.1995C16.1376 31.2176 15.9395 31.1968 15.7511 31.1382C15.5627 31.0797 15.3877 30.9845 15.2361 30.8582C15.0668 30.7172 14.9306 30.5406 14.8373 30.3409C14.7439 30.1413 14.6957 29.9236 14.6961 29.7032C14.6996 29.3508 14.827 29.011 15.0561 28.7432L17.5461 25.7432C17.6868 25.5733 17.8633 25.4366 18.063 25.3428C18.2626 25.2489 18.4805 25.2003 18.7011 25.2003C18.9217 25.2003 19.1396 25.2489 19.3392 25.3428C19.5388 25.4366 19.7153 25.5733 19.8561 25.7432L22.3461 28.7432C22.4733 28.8938 22.5695 29.0681 22.6293 29.2559C22.689 29.4438 22.7112 29.6416 22.6945 29.838C22.6778 30.0344 22.6225 30.2256 22.5318 30.4007Z" fill="url(#paint3_linear_3865_12096)"/>
<defs>
<linearGradient id="paint0_linear_3865_12096" x1="3.95066" y1="9.8347" x2="24.9008" y2="35.8949" gradientUnits="userSpaceOnUse">
<stop stop-color="#1E80FF"/>
<stop offset="1" stop-color="#BD22FF"/>
</linearGradient>
<linearGradient id="paint1_linear_3865_12096" x1="3.95066" y1="9.8347" x2="24.9008" y2="35.8949" gradientUnits="userSpaceOnUse">
<stop stop-color="#1E80FF"/>
<stop offset="1" stop-color="#BD22FF"/>
</linearGradient>
<linearGradient id="paint2_linear_3865_12096" x1="3.95066" y1="9.8347" x2="24.9008" y2="35.8949" gradientUnits="userSpaceOnUse">
<stop stop-color="#1E80FF"/>
<stop offset="1" stop-color="#BD22FF"/>
</linearGradient>
<linearGradient id="paint3_linear_3865_12096" x1="3.95066" y1="9.8347" x2="24.9008" y2="35.8949" gradientUnits="userSpaceOnUse">
<stop stop-color="#1E80FF"/>
<stop offset="1" stop-color="#BD22FF"/>
</linearGradient>
</defs>
</svg>
