<svg width="37" height="36" viewBox="0 0 37 36" fill="none" xmlns="http://www.w3.org/2000/svg">
<path d="M19.4028 7.91069L19.357 7.92532V7.97344V9.69703V9.76289H19.4229H25.8775C27.8781 9.76289 29.4999 11.3847 29.4999 13.3854V14.4392V14.505H29.5658H31.0148C31.9969 14.505 32.7931 15.3012 32.7931 16.2834V20.6303C32.7931 21.6125 31.9969 22.4086 31.0148 22.4086H29.5658H29.4999V22.4745V23.5283C29.4999 25.529 27.8781 27.1508 25.8775 27.1508H18.4076H18.3192L18.3445 27.2355L18.9941 29.41C19.5685 31.333 17.1681 32.7273 15.7823 31.2755L11.8645 27.1712L11.8451 27.1508H11.8169H11.1241C9.12345 27.1508 7.50161 25.529 7.50161 23.5283V22.4745V22.4086H7.43574H5.98675C5.00462 22.4086 4.20844 21.6125 4.20844 20.6303V16.2834C4.20844 15.3012 5.00462 14.505 5.98675 14.505H7.43574H7.50161V14.4392V13.3854C7.50161 11.3847 9.12345 9.76289 11.1241 9.76289H17.5787H17.6446V9.69703V7.97344V7.92532L17.5987 7.91069C16.4028 7.52904 15.5369 6.40886 15.5369 5.0866C15.5369 3.44971 16.8639 2.12275 18.5008 2.12275C20.1377 2.12275 21.4646 3.44971 21.4646 5.0866C21.4646 6.40886 20.5987 7.52904 19.4028 7.91069ZM7.43574 21.2231H7.50161V21.1572V15.7564V15.6906H7.43574H5.98675C5.65937 15.6906 5.39398 15.956 5.39398 16.2834V20.6303C5.39398 20.9577 5.65937 21.2231 5.98675 21.2231H7.43574ZM29.5658 15.6906H29.4999V15.7564V21.1572V21.2231H29.5658H31.0148C31.3422 21.2231 31.6076 20.9577 31.6076 20.6303V16.2834C31.6076 15.956 31.3422 15.6906 31.0148 15.6906H29.5658ZM15.6687 16.0858C15.6687 16.595 15.2558 17.0079 14.7466 17.0079C14.2373 17.0079 13.8245 16.595 13.8245 16.0858C13.8245 15.5765 14.2373 15.1637 14.7466 15.1637C15.2558 15.1637 15.6687 15.5765 15.6687 16.0858ZM23.5722 16.0858C23.5722 16.595 23.1594 17.0079 22.6502 17.0079C22.1409 17.0079 21.7281 16.595 21.7281 16.0858C21.7281 15.5765 22.1409 15.1637 22.6502 15.1637C23.1594 15.1637 23.5722 15.5765 23.5722 16.0858ZM14.0879 20.9596C14.0879 20.4504 14.5008 20.0376 15.01 20.0376H22.1233C22.6325 20.0376 23.0453 20.4504 23.0453 20.9596C23.0453 21.4689 22.6325 21.8817 22.1233 21.8817H15.01C14.5008 21.8817 14.0879 21.4689 14.0879 20.9596ZM18.5008 6.338C19.1919 6.338 19.7522 5.77773 19.7522 5.0866C19.7522 4.39547 19.1919 3.83519 18.5008 3.83519C17.8096 3.83519 17.2494 4.39547 17.2494 5.0866C17.2494 5.77773 17.8096 6.338 18.5008 6.338ZM12.2678 25.4384C12.4658 25.4384 12.6552 25.5194 12.7919 25.6626L17.021 30.0931C17.1644 30.2433 17.4127 30.0991 17.3533 29.9001L16.1976 26.0313C16.1093 25.7357 16.3308 25.4384 16.6394 25.4384H25.8775C26.9323 25.4384 27.7875 24.5832 27.7875 23.5283V13.3854C27.7875 12.3305 26.9323 11.4753 25.8775 11.4753H11.1241C10.0692 11.4753 9.21405 12.3305 9.21405 13.3854V23.5283C9.21405 24.5832 10.0692 25.4384 11.1241 25.4384H12.2678Z" fill="#667A99"/>
<path d="M19.4028 7.91069L19.357 7.92532V7.97344V9.69703V9.76289H19.4229H25.8775C27.8781 9.76289 29.4999 11.3847 29.4999 13.3854V14.4392V14.505H29.5658H31.0148C31.9969 14.505 32.7931 15.3012 32.7931 16.2834V20.6303C32.7931 21.6125 31.9969 22.4086 31.0148 22.4086H29.5658H29.4999V22.4745V23.5283C29.4999 25.529 27.8781 27.1508 25.8775 27.1508H18.4076H18.3192L18.3445 27.2355L18.9941 29.41C19.5685 31.333 17.1681 32.7273 15.7823 31.2755L11.8645 27.1712L11.8451 27.1508H11.8169H11.1241C9.12345 27.1508 7.50161 25.529 7.50161 23.5283V22.4745V22.4086H7.43574H5.98675C5.00462 22.4086 4.20844 21.6125 4.20844 20.6303V16.2834C4.20844 15.3012 5.00462 14.505 5.98675 14.505H7.43574H7.50161V14.4392V13.3854C7.50161 11.3847 9.12345 9.76289 11.1241 9.76289H17.5787H17.6446V9.69703V7.97344V7.92532L17.5987 7.91069C16.4028 7.52904 15.5369 6.40886 15.5369 5.0866C15.5369 3.44971 16.8639 2.12275 18.5008 2.12275C20.1377 2.12275 21.4646 3.44971 21.4646 5.0866C21.4646 6.40886 20.5987 7.52904 19.4028 7.91069ZM7.43574 21.2231H7.50161V21.1572V15.7564V15.6906H7.43574H5.98675C5.65937 15.6906 5.39398 15.956 5.39398 16.2834V20.6303C5.39398 20.9577 5.65937 21.2231 5.98675 21.2231H7.43574ZM29.5658 15.6906H29.4999V15.7564V21.1572V21.2231H29.5658H31.0148C31.3422 21.2231 31.6076 20.9577 31.6076 20.6303V16.2834C31.6076 15.956 31.3422 15.6906 31.0148 15.6906H29.5658ZM15.6687 16.0858C15.6687 16.595 15.2558 17.0079 14.7466 17.0079C14.2373 17.0079 13.8245 16.595 13.8245 16.0858C13.8245 15.5765 14.2373 15.1637 14.7466 15.1637C15.2558 15.1637 15.6687 15.5765 15.6687 16.0858ZM23.5722 16.0858C23.5722 16.595 23.1594 17.0079 22.6502 17.0079C22.1409 17.0079 21.7281 16.595 21.7281 16.0858C21.7281 15.5765 22.1409 15.1637 22.6502 15.1637C23.1594 15.1637 23.5722 15.5765 23.5722 16.0858ZM14.0879 20.9596C14.0879 20.4504 14.5008 20.0376 15.01 20.0376H22.1233C22.6325 20.0376 23.0453 20.4504 23.0453 20.9596C23.0453 21.4689 22.6325 21.8817 22.1233 21.8817H15.01C14.5008 21.8817 14.0879 21.4689 14.0879 20.9596ZM18.5008 6.338C19.1919 6.338 19.7522 5.77773 19.7522 5.0866C19.7522 4.39547 19.1919 3.83519 18.5008 3.83519C17.8096 3.83519 17.2494 4.39547 17.2494 5.0866C17.2494 5.77773 17.8096 6.338 18.5008 6.338ZM12.2678 25.4384C12.4658 25.4384 12.6552 25.5194 12.7919 25.6626L17.021 30.0931C17.1644 30.2433 17.4127 30.0991 17.3533 29.9001L16.1976 26.0313C16.1093 25.7357 16.3308 25.4384 16.6394 25.4384H25.8775C26.9323 25.4384 27.7875 24.5832 27.7875 23.5283V13.3854C27.7875 12.3305 26.9323 11.4753 25.8775 11.4753H11.1241C10.0692 11.4753 9.21405 12.3305 9.21405 13.3854V23.5283C9.21405 24.5832 10.0692 25.4384 11.1241 25.4384H12.2678Z" fill="url(#paint0_linear_3865_12080)"/>
<path d="M19.4028 7.91069L19.357 7.92532V7.97344V9.69703V9.76289H19.4229H25.8775C27.8781 9.76289 29.4999 11.3847 29.4999 13.3854V14.4392V14.505H29.5658H31.0148C31.9969 14.505 32.7931 15.3012 32.7931 16.2834V20.6303C32.7931 21.6125 31.9969 22.4086 31.0148 22.4086H29.5658H29.4999V22.4745V23.5283C29.4999 25.529 27.8781 27.1508 25.8775 27.1508H18.4076H18.3192L18.3445 27.2355L18.9941 29.41C19.5685 31.333 17.1681 32.7273 15.7823 31.2755L11.8645 27.1712L11.8451 27.1508H11.8169H11.1241C9.12345 27.1508 7.50161 25.529 7.50161 23.5283V22.4745V22.4086H7.43574H5.98675C5.00462 22.4086 4.20844 21.6125 4.20844 20.6303V16.2834C4.20844 15.3012 5.00462 14.505 5.98675 14.505H7.43574H7.50161V14.4392V13.3854C7.50161 11.3847 9.12345 9.76289 11.1241 9.76289H17.5787H17.6446V9.69703V7.97344V7.92532L17.5987 7.91069C16.4028 7.52904 15.5369 6.40886 15.5369 5.0866C15.5369 3.44971 16.8639 2.12275 18.5008 2.12275C20.1377 2.12275 21.4646 3.44971 21.4646 5.0866C21.4646 6.40886 20.5987 7.52904 19.4028 7.91069ZM7.43574 21.2231H7.50161V21.1572V15.7564V15.6906H7.43574H5.98675C5.65937 15.6906 5.39398 15.956 5.39398 16.2834V20.6303C5.39398 20.9577 5.65937 21.2231 5.98675 21.2231H7.43574ZM29.5658 15.6906H29.4999V15.7564V21.1572V21.2231H29.5658H31.0148C31.3422 21.2231 31.6076 20.9577 31.6076 20.6303V16.2834C31.6076 15.956 31.3422 15.6906 31.0148 15.6906H29.5658ZM15.6687 16.0858C15.6687 16.595 15.2558 17.0079 14.7466 17.0079C14.2373 17.0079 13.8245 16.595 13.8245 16.0858C13.8245 15.5765 14.2373 15.1637 14.7466 15.1637C15.2558 15.1637 15.6687 15.5765 15.6687 16.0858ZM23.5722 16.0858C23.5722 16.595 23.1594 17.0079 22.6502 17.0079C22.1409 17.0079 21.7281 16.595 21.7281 16.0858C21.7281 15.5765 22.1409 15.1637 22.6502 15.1637C23.1594 15.1637 23.5722 15.5765 23.5722 16.0858ZM14.0879 20.9596C14.0879 20.4504 14.5008 20.0376 15.01 20.0376H22.1233C22.6325 20.0376 23.0453 20.4504 23.0453 20.9596C23.0453 21.4689 22.6325 21.8817 22.1233 21.8817H15.01C14.5008 21.8817 14.0879 21.4689 14.0879 20.9596ZM18.5008 6.338C19.1919 6.338 19.7522 5.77773 19.7522 5.0866C19.7522 4.39547 19.1919 3.83519 18.5008 3.83519C17.8096 3.83519 17.2494 4.39547 17.2494 5.0866C17.2494 5.77773 17.8096 6.338 18.5008 6.338ZM12.2678 25.4384C12.4658 25.4384 12.6552 25.5194 12.7919 25.6626L17.021 30.0931C17.1644 30.2433 17.4127 30.0991 17.3533 29.9001L16.1976 26.0313C16.1093 25.7357 16.3308 25.4384 16.6394 25.4384H25.8775C26.9323 25.4384 27.7875 24.5832 27.7875 23.5283V13.3854C27.7875 12.3305 26.9323 11.4753 25.8775 11.4753H11.1241C10.0692 11.4753 9.21405 12.3305 9.21405 13.3854V23.5283C9.21405 24.5832 10.0692 25.4384 11.1241 25.4384H12.2678Z" stroke="url(#paint1_linear_3865_12080)" stroke-width="0.131727"/>
<defs>
<linearGradient id="paint0_linear_3865_12080" x1="4" y1="5" x2="31" y2="30.5" gradientUnits="userSpaceOnUse">
<stop stop-color="#1E80FF"/>
<stop offset="1" stop-color="#BD22FF"/>
</linearGradient>
<linearGradient id="paint1_linear_3865_12080" x1="4.14258" y1="2.05688" x2="34.8045" y2="4.20774" gradientUnits="userSpaceOnUse">
<stop stop-color="#93C1FD"/>
<stop offset="1" stop-color="#E4ABFC"/>
</linearGradient>
</defs>
</svg>
